<?xml version="1.0" encoding="utf-8"?>
<!-- Generator: Adobe Illustrator 18.1.1, SVG Export Plug-In . SVG Version: 6.00 Build 0)  -->
<svg version="1.1" id="Layer_1" xmlns="http://www.w3.org/2000/svg" xmlns:xlink="http://www.w3.org/1999/xlink" x="0px" y="0px"
	 width="1024px" height="768px" viewBox="0 0 1024 768" enable-background="new 0 0 1024 768" xml:space="preserve">
<g id="Layer_1_1_">
	<rect x="512" width="512" height="768"/>
</g>
<g id="Layer_2">
	<g>
		<g>
			<path fill="#FFFFFF" d="M567.6,75.1c-0.3,0-0.5-0.1-0.7-0.3L552,60l14.8-14.8c0.4-0.4,1-0.4,1.4,0s0.4,1,0,1.4L554.8,60
				l13.4,13.4c0.4,0.4,0.4,1,0,1.4C568.1,75,567.8,75.1,567.6,75.1z"/>
		</g>
		<g>
			<rect x="522" y="20" fill="none" width="80" height="80"/>
		</g>
	</g>
	<g>
		<g>
			<path fill="#FFFFFF" d="M638.4,75.1c0.3,0,0.5-0.1,0.7-0.3L654,60l-14.8-14.8c-0.4-0.4-1-0.4-1.4,0s-0.4,1,0,1.4L651.2,60
				l-13.4,13.4c-0.4,0.4-0.4,1,0,1.4C637.9,75,638.2,75.1,638.4,75.1z"/>
		</g>
		<g>
			<rect x="604" y="20" fill="none" width="80" height="80"/>
		</g>
	</g>
	<g>
		<path fill="#FFFFFF" d="M726,47.5l13,9.5v16h-26V57L726,47.5 M726,45l-15,11v19h30V56L726,45L726,45z"/>
		<g>
			<g>
				<rect x="686" y="20" fill="none" width="80" height="80"/>
			</g>
		</g>
	</g>
	<g>
		<g>
			<g>
				<rect x="768" y="20" fill="none" width="80" height="80"/>
			</g>
		</g>
		<g>
			<path fill="#FFFFFF" d="M822,74h-28V52h28V74z M796,72h24V54h-24V72z"/>
			<polygon fill="#FFFFFF" points="810,46 810,52 812,52 812,48 826,48 826,62 822,62 822,64 828,64 828,46 			"/>
			<polygon fill="#FFFFFF" points="794,62 790,62 790,48 804,48 804,52 806,52 806,46 788,46 788,64 794,64 			"/>
		</g>
	</g>
	<g>
		<g>
			<path fill="#FFFFFF" d="M899.9,76c-0.2,0-0.4,0-0.5-0.1l-9.4-5.8l-9.4,5.8c-0.3,0.2-0.8,0.2-1.1,0s-0.5-0.7-0.4-1.1l2.7-10.5
				l-8.5-7c-0.3-0.3-0.4-0.7-0.3-1.1c0.1-0.4,0.5-0.7,0.9-0.7l11-0.8l4.1-10.1c0.2-0.4,0.5-0.6,0.9-0.6s0.8,0.2,0.9,0.6l4.1,10.1
				l11,0.8c0.4,0,0.8,0.3,0.9,0.7c0.1,0.4,0,0.8-0.3,1.1l-8.5,7l2.7,10.5c0.1,0.4,0,0.8-0.4,1.1C900.3,75.9,900.1,76,899.9,76z
				 M890,67.9c0.2,0,0.4,0,0.5,0.1l7.8,4.8l-2.2-8.8c-0.1-0.4,0-0.8,0.3-1l7-5.8l-9.1-0.6c-0.4,0-0.7-0.3-0.9-0.6l-3.4-8.4l-3.4,8.4
				c-0.1,0.4-0.5,0.6-0.9,0.6l-9.1,0.6l7,5.8c0.3,0.2,0.4,0.6,0.3,1l-2.2,8.8l7.8-4.8C889.6,67.9,889.8,67.9,890,67.9z"/>
		</g>
		<g>
			<rect x="850" y="20" fill="none" width="80" height="80"/>
		</g>
	</g>
	<g>
		<g>
			<circle fill="#FFFFFF" cx="972" cy="48" r="3"/>
			<circle fill="#FFFFFF" cx="972" cy="60" r="3"/>
			<circle fill="#FFFFFF" cx="972" cy="72" r="3"/>
		</g>
		<g>
			<rect x="932" y="20" fill="none" width="80" height="80"/>
		</g>
	</g>
	<g>
		<g>
			<rect x="40" y="20" fill="none" width="80" height="80"/>
		</g>
		<g>
			<path fill="#BDBEBF" d="M76.5,47.5c5,0,9,4,9,9s-4,9-9,9s-9-4-9-9S71.5,47.5,76.5,47.5 M76.5,45C70.1,45,65,50.1,65,56.5
				S70.1,68,76.5,68S88,62.9,88,56.5S82.9,45,76.5,45L76.5,45z"/>
			<path fill="#BDBEBF" d="M94.8,71.9c0.3,0.3,0.3,0.8,0,1.2L93,74.8c-0.3,0.3-0.8,0.3-1.2,0l-9.1-9.1c-0.3-0.3-0.3-0.8,0-1.2
				l1.7-1.7c0.3-0.3,0.8-0.3,1.2,0L94.8,71.9z"/>
		</g>
	</g>
	<g>
		<g>
			<g>
				<path fill="#BDBEBF" d="M187,45c-8.3,0-15,6.7-15,15s6.7,15,15,15s15-6.7,15-15S195.3,45,187,45z M194.8,66.4l-1.4,1.4l-6.4-6.4
					l-6.4,6.4l-1.4-1.4l6.4-6.4l-6.4-6.4l1.4-1.4l6.4,6.4l6.4-6.4l1.4,1.4l-6.4,6.4L194.8,66.4z"/>
			</g>
		</g>
		<rect x="160" y="33" fill="none" width="54" height="54"/>
	</g>
	<g>
		<rect x="254" y="33" fill="none" width="54" height="54"/>
		<g>
			<path fill="#BDBEBF" d="M291.9,65.1C290,69.2,285.8,72,281,72c-6.6,0-12-5.4-12-12s5.4-12,12-12c4,0,7.5,2,9.7,5h2.4
				c-2.4-4.2-6.9-7-12.1-7c-7.7,0-14,6.3-14,14s6.3,14,14,14c5.6,0,10.4-3.3,12.7-8.1L291.9,65.1z"/>
			<polygon fill="#BDBEBF" points="295.4,56 285.5,56 295.4,46.2 			"/>
		</g>
	</g>
	<g>
		<rect x="348" y="33" fill="none" width="54" height="54"/>
		<g>
			<g opacity="0.25">
				<circle cx="375" cy="61" r="25"/>
			</g>
			<g>
				<path fill="#FFFFFF" d="M375,83.5c-13.5,0-24.5-11-24.5-24.5s11-24.5,24.5-24.5s24.5,11,24.5,24.5S388.5,83.5,375,83.5z"/>
				<path fill="#3882AE" d="M375,35c13.2,0,24,10.8,24,24s-10.8,24-24,24s-24-10.8-24-24S361.8,35,375,35 M375,34
					c-13.8,0-25,11.2-25,25s11.2,25,25,25s25-11.2,25-25S388.8,34,375,34L375,34z"/>
			</g>
			<g>

					<rect x="361" y="58" transform="matrix(-0.7071 -0.7071 0.7071 -0.7071 598.4443 365.8777)" fill="#3882AE" width="28" height="2"/>
				<rect x="361" y="58" transform="matrix(0.7071 -0.7071 0.7071 0.7071 68.118 282.4472)" fill="#3882AE" width="28" height="2"/>
			</g>
		</g>
	</g>
	<g>
		<g>
			<rect x="561" y="166" fill="#FFFFFF" width="2" height="28"/>
			<rect x="548" y="179" fill="#FFFFFF" width="28" height="2"/>
		</g>
		<g>
			<rect x="522" y="140" fill="none" width="80" height="80"/>
		</g>
	</g>
	<g>
		<g>
			<g>
				<path fill="#FFFFFF" d="M71,197c-2.8,0-5-2.2-5-5v-46c0-2.8,2.2-5,5-5h66c2.8,0,5,2.2,5,5v46c0,2.8-2.2,5-5,5H71z"/>
				<path fill="#46A2DA" d="M137,142c2.2,0,4,1.8,4,4v46c0,2.2-1.8,4-4,4H71c-2.2,0-4-1.8-4-4v-46c0-2.2,1.8-4,4-4H137 M137,140H71
					c-3.3,0-6,2.7-6,6v46c0,3.3,2.7,6,6,6h66c3.3,0,6-2.7,6-6v-46C143,142.7,140.3,140,137,140L137,140z"/>
			</g>
			<polygon fill="#FFFFFF" points="107,191 91,191 91,198 106,215 106,198 			"/>
			<rect x="105" y="196" fill="#46A2DA" width="2" height="20"/>
			<polygon fill="#46A2DA" points="105,213 105,216 89,196 91,196 			"/>
		</g>
		<g>
			<g>
				<path fill="#46A2DA" d="M107.6,169.2c0-3.5,0.5-6.7,1.5-9.7s2.5-5.6,4.4-7.9h2.2c-1.9,2.4-3.4,5.1-4.4,8.1s-1.5,6.2-1.5,9.5
					c0,6.3,2,12.1,5.9,17.3h-2.2c-1.9-2.2-3.4-4.8-4.4-7.8S107.6,172.6,107.6,169.2z"/>
			</g>
			<g>
				<g>
					<path fill="#46A2DA" d="M121.5,160c-1.1-1.8-3.2-2.8-5.7-2.8c-1.3,0-2.7,0.3-3.9,0.8c-0.2,0.6-0.5,1.1-0.7,1.7
						c-0.1,0.4-0.2,0.7-0.3,1.1c0,0,0.1,0,0.1-0.1c1.5-1,3.2-1.5,4.8-1.5c1.8,0,3.3,0.7,4.1,1.9c1.5,2.4,0,6.1-3.4,8.2
						c-1.5,1-3.2,1.5-4.8,1.5c-0.7,0-1.4-0.1-1.9-0.3c0,0.7,0.1,1.4,0.2,2c0.5,0.1,1.1,0.2,1.7,0.2c2,0,4.1-0.6,5.9-1.8
						C121.8,168.2,123.6,163.3,121.5,160z"/>
				</g>
				<path fill="#46A2DA" d="M116.6,163.3c-0.2-0.5-0.8-0.7-1.3-0.4l-5.4,2.7c-0.1,0.7-0.1,1.5-0.2,2.2l6.4-3.3
					C116.7,164.4,116.9,163.8,116.6,163.3z"/>
			</g>
			<g>

					<rect x="86" y="180" transform="matrix(-0.7071 -0.7071 0.7071 -0.7071 30.777 374.7444)" fill="#46A2DA" width="14" height="2"/>

					<rect x="86" y="180" transform="matrix(0.7071 -0.7071 0.7071 0.7071 -100.7471 118.7761)" fill="#46A2DA" width="14" height="2"/>
			</g>
			<g>

					<rect x="86" y="156" transform="matrix(-0.7071 -0.7071 0.7071 -0.7071 47.7471 333.7741)" fill="#46A2DA" width="14" height="2"/>

					<rect x="86" y="156" transform="matrix(0.7071 -0.7071 0.7071 0.7071 -83.7765 111.7465)" fill="#46A2DA" width="14" height="2"/>
			</g>
		</g>
	</g>
	<g>
		<g opacity="0.8">
			<rect x="183" y="140" fill="#46A2DA" width="70" height="70"/>
		</g>
		<g>
			<path fill="#FFFFFF" d="M202.9,181.6c0-0.3,0.1-0.5,0.3-0.7L218,166l14.8,14.8c0.4,0.4,0.4,1,0,1.4s-1,0.4-1.4,0L218,168.8
				l-13.4,13.4c-0.4,0.4-1,0.4-1.4,0C203,182.1,202.9,181.8,202.9,181.6z"/>
		</g>
	</g>
</g>
</svg>
